<svg xmlns="http://www.w3.org/2000/svg" fill="none" viewBox="0 0 20 20">
  <g clip-path="url(#a)">
    <path stroke="#475467" stroke-linecap="round" stroke-linejoin="round" stroke-width="1.67" d="M6.67 6.67V4.33c0-.93 0-1.4.18-1.75.16-.32.41-.57.73-.73.35-.18.82-.18 1.75-.18h6.34c.93 0 1.4 0 1.75.18.32.16.57.41.73.73.18.35.18.82.18 1.75v6.34c0 .93 0 1.4-.18 1.75-.16.32-.41.57-.73.73-.35.18-.82.18-1.75.18h-2.34m-9 5h6.34c.93 0 1.4 0 1.75-.18.32-.16.57-.41.73-.73.18-.35.18-.82.18-1.75V9.33c0-.93 0-1.4-.18-1.75a1.67 1.67 0 0 0-.73-.73c-.35-.18-.82-.18-1.75-.18H4.33c-.93 0-1.4 0-1.75.18-.32.16-.57.41-.73.73-.18.35-.18.82-.18 1.75v6.34c0 .93 0 1.4.18 1.75.16.32.41.57.73.73.35.18.82.18 1.75.18Z"/>
  </g>
  <defs>
    <clipPath id="a">
      <path fill="#fff" d="M0 0h20v20H0z"/>
    </clipPath>
  </defs>
</svg>
