<svg xmlns="http://www.w3.org/2000/svg" fill="none" viewBox="0 0 20 20">
  <path stroke="#344054" stroke-linecap="round" stroke-linejoin="round" stroke-width="1.67" d="M7.5 17.5v-6.17c0-.46 0-.7.1-.88.07-.15.2-.28.36-.36.17-.09.4-.09.87-.09h2.34c.46 0 .7 0 .88.1.15.07.28.2.36.36.09.17.09.4.09.87v6.17M9.18 2.3 3.53 6.7c-.38.3-.57.44-.7.62-.12.17-.21.35-.27.55-.06.22-.06.46-.06.93v6.03c0 .94 0 1.4.18 1.76.16.31.42.57.73.73.36.18.82.18 1.76.18h9.66c.94 0 1.4 0 1.76-.18.31-.16.57-.42.73-.73.18-.36.18-.82.18-1.76V8.8c0-.47 0-.71-.06-.93-.06-.2-.15-.38-.27-.55a3.36 3.36 0 0 0-.7-.62l-5.65-4.4c-.3-.22-.44-.34-.6-.38a.83.83 0 0 0-.44 0c-.16.04-.3.16-.6.38Z"/>
</svg>
