<svg xmlns="http://www.w3.org/2000/svg" fill="none" viewBox="0 0 20 20">
  <path stroke="#475467" stroke-linecap="round" stroke-linejoin="round" stroke-width="1.67" d="M13.33 5v-.67c0-.93 0-1.4-.18-1.75a1.67 1.67 0 0 0-.73-.73c-.35-.18-.82-.18-1.75-.18H9.33c-.93 0-1.4 0-1.75.18-.32.16-.57.41-.73.73-.18.35-.18.82-.18 1.75V5m1.66 4.58v4.17m3.34-4.17v4.17M2.5 5h15m-1.67 0v9.33c0 1.4 0 2.1-.27 2.64a2.5 2.5 0 0 1-1.1 1.1c-.53.26-1.23.26-2.63.26H8.17c-1.4 0-2.1 0-2.64-.27a2.5 2.5 0 0 1-1.1-1.1c-.26-.53-.26-1.23-.26-2.63V5"/>
</svg>
